<svg width="359" height="111" viewBox="0 0 359 111" fill="none" xmlns="http://www.w3.org/2000/svg">
<g filter="url(#filter0_i_17_18)">
<g filter="url(#filter1_i_17_18)">
<path d="M274.929 58.968H281.121V63H260.313V58.968H266.865V16.632H260.313V12.6H267.585C269.745 12.6 272.097 12.504 274.641 12.312C277.185 12.12 279.681 12.024 282.129 12.024C284.769 12.024 287.241 12.312 289.545 12.888C291.897 13.416 293.913 14.256 295.593 15.408C297.273 16.56 298.593 18.048 299.553 19.872C300.561 21.648 301.065 23.784 301.065 26.28C301.065 29.736 299.985 32.688 297.825 35.136C295.713 37.536 292.929 39.24 289.473 40.248L303.801 58.968H308.265V63H296.601L282.273 41.256H274.929V58.968ZM280.617 37.512C284.313 37.512 287.193 36.504 289.257 34.488C291.369 32.472 292.425 29.736 292.425 26.28C292.425 22.728 291.321 20.136 289.113 18.504C286.905 16.872 283.977 16.056 280.329 16.056C279.081 16.056 278.025 16.104 277.161 16.2C276.345 16.296 275.601 16.392 274.929 16.488V37.512H280.617ZM353.193 12.6V24.408H348.585V18.216L347.145 16.632H329.505V35.28H341.673L342.753 34.2V31.176H347.361V43.488H342.753V40.464L341.673 39.312H329.505V58.968H348.369L349.809 57.528V50.472H354.417V63H314.889V58.968H321.441V16.632H314.889V12.6H353.193Z" fill="#9F543E"/>
</g>
<path d="M2.304 16.632V12.6H18.72L35.712 44.856L53.064 12.6H68.544V16.632H61.992V58.968H68.544V63H47.664V58.968H54.216V26.856C54.264 26.616 54.288 26.064 54.288 25.2C54.336 24.288 54.384 23.328 54.432 22.32C54.48 21.12 54.528 19.824 54.576 18.432H53.928L50.832 26.136L36.072 52.2H31.68L17.28 26.136L14.112 17.712H13.392V22.176C13.392 23.28 13.392 24.336 13.392 25.344C13.44 26.304 13.464 26.808 13.464 26.856V58.968H19.584V63H2.304V58.968H8.856V16.632H2.304ZM92.331 63H74.115V59.4H79.443V28.8H74.115V25.2H87.003V59.4H92.331V63ZM77.859 13.536C77.859 12.144 78.339 11.04 79.299 10.224C80.307 9.408 81.579 9 83.115 9C84.747 9 86.019 9.408 86.931 10.224C87.891 11.04 88.371 12.144 88.371 13.536C88.371 14.928 87.891 16.032 86.931 16.848C86.019 17.664 84.747 18.072 83.115 18.072C81.579 18.072 80.307 17.664 79.299 16.848C78.339 16.032 77.859 14.928 77.859 13.536ZM116.729 63H98.5134V59.4H103.841V12.6H97.7214V9H111.401V59.4H116.729V63ZM153.08 52.992C153.08 54.096 153.104 55.224 153.152 56.376C153.2 57.48 153.272 58.488 153.368 59.4H158.12V63H146.816L146.096 56.16H145.736C145.496 57.12 145.04 58.056 144.368 58.968C143.744 59.88 142.928 60.696 141.92 61.416C140.96 62.136 139.808 62.712 138.464 63.144C137.12 63.576 135.632 63.792 134 63.792C132.368 63.792 130.856 63.552 129.464 63.072C128.12 62.592 126.944 61.92 125.936 61.056C124.928 60.192 124.136 59.16 123.56 57.96C123.032 56.712 122.768 55.32 122.768 53.784C122.768 51.432 123.248 49.488 124.208 47.952C125.216 46.416 126.68 45.216 128.6 44.352C130.52 43.44 132.92 42.792 135.8 42.408C138.68 42.024 142.04 41.808 145.88 41.76C145.976 40.992 146.024 40.272 146.024 39.6C146.024 38.88 146.024 38.184 146.024 37.512C146.024 34.536 145.52 32.28 144.512 30.744C143.504 29.16 141.704 28.368 139.112 28.368C138.152 28.368 137.12 28.416 136.016 28.512C134.912 28.608 133.904 28.896 132.992 29.376V36H126.512V28.008C128.24 27.096 130.28 26.28 132.632 25.56C134.984 24.84 137.744 24.48 140.912 24.48C143.648 24.48 145.832 24.84 147.464 25.56C149.144 26.232 150.416 27.144 151.28 28.296C152.192 29.4 152.768 30.672 153.008 32.112C153.296 33.504 153.44 34.896 153.44 36.288C153.44 39.312 153.368 42.216 153.224 45C153.128 47.736 153.08 50.4 153.08 52.992ZM137.312 58.968C138.464 58.968 139.496 58.8 140.408 58.464C141.32 58.08 142.112 57.624 142.784 57.096C143.504 56.52 144.104 55.896 144.584 55.224C145.112 54.552 145.544 53.904 145.88 53.28V44.712C142.76 44.712 140.216 44.928 138.248 45.36C136.328 45.744 134.816 46.272 133.712 46.944C132.608 47.616 131.84 48.432 131.408 49.392C131.024 50.304 130.832 51.288 130.832 52.344C130.832 54.504 131.408 56.16 132.56 57.312C133.712 58.416 135.296 58.968 137.312 58.968ZM207.536 63H189.896V59.4H194.648V41.328C194.648 37.536 194.072 34.584 192.92 32.472C191.768 30.36 189.656 29.304 186.584 29.304C185.24 29.304 183.992 29.52 182.84 29.952C181.736 30.384 180.728 30.96 179.816 31.68C178.952 32.4 178.184 33.24 177.512 34.2C176.888 35.16 176.408 36.168 176.072 37.224V59.4H180.824V63H163.184V59.4H168.512V28.8H163.184V25.2H176.072V32.688H176.144C177.248 30.384 178.856 28.44 180.968 26.856C183.128 25.272 185.72 24.48 188.744 24.48C190.904 24.48 192.824 24.72 194.504 25.2C196.184 25.632 197.576 26.448 198.68 27.648C199.832 28.848 200.696 30.456 201.272 32.472C201.896 34.488 202.208 37.056 202.208 40.176V59.4H207.536V63ZM212.138 44.136C212.138 40.968 212.594 38.16 213.506 35.712C214.418 33.264 215.69 31.224 217.322 29.592C219.002 27.912 221.018 26.64 223.37 25.776C225.77 24.912 228.41 24.48 231.29 24.48C234.65 24.48 237.53 24.96 239.93 25.92C242.378 26.832 244.37 28.152 245.906 29.88C247.442 31.56 248.57 33.624 249.29 36.072C250.058 38.472 250.442 41.16 250.442 44.136C250.442 47.304 249.986 50.112 249.074 52.56C248.21 54.96 246.938 57 245.258 58.68C243.626 60.312 241.61 61.56 239.21 62.424C236.858 63.288 234.218 63.72 231.29 63.72C228.026 63.72 225.194 63.264 222.794 62.352C220.394 61.392 218.402 60.072 216.818 58.392C215.234 56.664 214.058 54.6 213.29 52.2C212.522 49.8 212.138 47.112 212.138 44.136ZM220.274 44.136C220.274 46.44 220.49 48.576 220.922 50.544C221.354 52.512 222.05 54.216 223.01 55.656C224.018 57.096 225.29 58.248 226.826 59.112C228.41 59.928 230.33 60.336 232.586 60.336C235.418 60.336 237.746 59.04 239.57 56.448C241.394 53.856 242.306 49.752 242.306 44.136C242.306 41.832 242.09 39.696 241.658 37.728C241.226 35.712 240.53 33.984 239.57 32.544C238.658 31.056 237.458 29.904 235.97 29.088C234.53 28.272 232.754 27.864 230.642 27.864C227.474 27.864 224.954 29.16 223.082 31.752C221.21 34.344 220.274 38.472 220.274 44.136Z" fill="#1E1E1E"/>
<path d="M44.794 90.216H46.458V94.298C45.9207 94.5927 45.21 94.8353 44.326 95.026C43.442 95.2167 42.5667 95.312 41.7 95.312C40.1053 95.312 38.6753 95.13 37.41 94.766C36.1447 94.402 35.07 93.8387 34.186 93.076C33.3193 92.296 32.652 91.3167 32.184 90.138C31.716 88.9593 31.482 87.5467 31.482 85.9C31.482 84.2013 31.742 82.7627 32.262 81.584C32.782 80.388 33.484 79.4173 34.368 78.672C35.252 77.9093 36.2747 77.3547 37.436 77.008C38.5973 76.6613 39.8193 76.488 41.102 76.488C41.726 76.488 42.2893 76.514 42.792 76.566C43.2947 76.6007 43.7453 76.6613 44.144 76.748C44.56 76.8347 44.9413 76.9387 45.288 77.06C45.6347 77.1813 45.9727 77.3113 46.302 77.45V81.896H44.638V79.166L44.274 78.646C44.0833 78.5593 43.78 78.4553 43.364 78.334C42.9653 78.2127 42.3153 78.152 41.414 78.152C40.478 78.152 39.6027 78.2993 38.788 78.594C37.9733 78.8887 37.2627 79.348 36.656 79.972C36.0667 80.596 35.5987 81.402 35.252 82.39C34.9053 83.3607 34.732 84.5307 34.732 85.9C34.732 88.3787 35.356 90.294 36.604 91.646C37.8693 92.9807 39.6373 93.648 41.908 93.648C42.532 93.648 43.052 93.6047 43.468 93.518C43.9013 93.414 44.222 93.284 44.43 93.128L44.794 92.634V90.216ZM59.6107 85.9C59.6107 84.548 59.8187 83.3 60.2347 82.156C60.6507 80.9947 61.2487 79.998 62.0288 79.166C62.8261 78.3167 63.7968 77.658 64.9408 77.19C66.1021 76.722 67.4194 76.488 68.8928 76.488C70.3661 76.488 71.6834 76.722 72.8448 77.19C74.0061 77.658 74.9854 78.3167 75.7828 79.166C76.5801 79.998 77.1868 80.9947 77.6028 82.156C78.0188 83.3 78.2268 84.548 78.2268 85.9C78.2268 87.252 78.0188 88.5087 77.6028 89.67C77.1868 90.814 76.5801 91.8107 75.7828 92.66C74.9854 93.492 74.0061 94.142 72.8448 94.61C71.6834 95.078 70.3661 95.312 68.8928 95.312C67.4194 95.312 66.1021 95.078 64.9408 94.61C63.7968 94.142 62.8261 93.492 62.0288 92.66C61.2487 91.8107 60.6507 90.814 60.2347 89.67C59.8187 88.5087 59.6107 87.252 59.6107 85.9ZM62.8608 85.9C62.8608 87.0093 62.9821 88.0493 63.2248 89.02C63.4848 89.9907 63.8748 90.8313 64.3948 91.542C64.9148 92.2527 65.5648 92.816 66.3448 93.232C67.1421 93.648 68.0781 93.856 69.1528 93.856C70.1408 93.856 70.9988 93.648 71.7267 93.232C72.4547 92.816 73.0527 92.2527 73.5208 91.542C74.0061 90.8313 74.3701 89.9907 74.6127 89.02C74.8554 88.0493 74.9767 87.0093 74.9767 85.9C74.9767 84.7907 74.8468 83.7507 74.5868 82.78C74.3441 81.8093 73.9628 80.9687 73.4428 80.258C72.9228 79.5473 72.2641 78.984 71.4668 78.568C70.6868 78.152 69.7508 77.944 68.6588 77.944C67.6188 77.944 66.7261 78.152 65.9808 78.568C65.2528 78.984 64.6548 79.5473 64.1868 80.258C63.7188 80.9687 63.3808 81.8093 63.1727 82.78C62.9648 83.7507 62.8608 84.7907 62.8608 85.9ZM93.6468 92.452L94.1148 93.076C94.4268 93.3013 94.8514 93.492 95.3888 93.648C95.9434 93.7867 96.5501 93.856 97.2088 93.856C97.8328 93.856 98.4048 93.7953 98.9248 93.674C99.4621 93.5353 99.9301 93.336 100.329 93.076C100.727 92.816 101.039 92.4867 101.265 92.088C101.49 91.6893 101.603 91.2127 101.603 90.658C101.603 89.9473 101.36 89.358 100.875 88.89C100.407 88.422 99.8174 88.006 99.1068 87.642C98.3961 87.278 97.6248 86.9227 96.7928 86.576C95.9608 86.2293 95.1894 85.822 94.4788 85.354C93.7681 84.886 93.1701 84.3227 92.6848 83.664C92.2168 83.0053 91.9828 82.1733 91.9828 81.168C91.9828 79.6947 92.5374 78.5507 93.6468 77.736C94.7734 76.904 96.2901 76.488 98.1968 76.488C99.3928 76.488 100.424 76.566 101.291 76.722C102.157 76.878 102.894 77.086 103.501 77.346V81.818H101.837V79.01L101.421 78.36C101.091 78.2213 100.615 78.1173 99.9908 78.048C99.3668 77.9787 98.7514 77.944 98.1448 77.944C97.1048 77.944 96.2901 78.1867 95.7008 78.672C95.1114 79.14 94.8168 79.8073 94.8168 80.674C94.8168 81.3847 95.0508 81.9827 95.5188 82.468C96.0041 82.936 96.6021 83.3607 97.3128 83.742C98.0234 84.1233 98.7948 84.496 99.6268 84.86C100.459 85.2067 101.23 85.614 101.941 86.082C102.651 86.5327 103.241 87.0787 103.709 87.72C104.194 88.3613 104.437 89.1587 104.437 90.112C104.437 91.7933 103.787 93.0847 102.487 93.986C101.187 94.87 99.4101 95.312 97.1568 95.312C95.9261 95.312 94.8601 95.182 93.9588 94.922C93.0574 94.662 92.3988 94.3847 91.9828 94.09V89.358H93.6468V92.452ZM129.727 95H121.459V93.544H124.137V78.256H119.483L118.963 78.828V82.182H117.091V76.8H134.095V82.182H132.223V78.828L131.703 78.256H127.049V93.544H129.727V95ZM151.443 93.544H153.679V95H146.165V93.544H148.531V78.256H146.165V76.8H148.791C149.571 76.8 150.421 76.7653 151.339 76.696C152.258 76.6267 153.159 76.592 154.043 76.592C154.997 76.592 155.889 76.696 156.721 76.904C157.571 77.0947 158.299 77.398 158.905 77.814C159.512 78.23 159.989 78.7673 160.335 79.426C160.699 80.0673 160.881 80.8387 160.881 81.74C160.881 82.988 160.491 84.054 159.711 84.938C158.949 85.8047 157.943 86.42 156.695 86.784L161.869 93.544H163.481V95H159.269L154.095 87.148H151.443V93.544ZM153.497 85.796C154.832 85.796 155.872 85.432 156.617 84.704C157.38 83.976 157.761 82.988 157.761 81.74C157.761 80.4573 157.363 79.5213 156.565 78.932C155.768 78.3427 154.711 78.048 153.393 78.048C152.943 78.048 152.561 78.0653 152.249 78.1C151.955 78.1347 151.686 78.1693 151.443 78.204V85.796H153.497ZM191.536 88.786C191.536 89.8953 191.371 90.8573 191.042 91.672C190.712 92.4693 190.244 93.1367 189.638 93.674C189.048 94.194 188.329 94.584 187.48 94.844C186.63 95.104 185.686 95.234 184.646 95.234C182.184 95.234 180.304 94.7487 179.004 93.778C177.721 92.79 177.08 91.2733 177.08 89.228V78.256H174.714V76.8H182.098V78.256H179.992V88.682C179.992 89.5833 180.104 90.346 180.33 90.97C180.555 91.5767 180.876 92.0707 181.292 92.452C181.725 92.816 182.254 93.0847 182.878 93.258C183.502 93.414 184.212 93.492 185.01 93.492C186.535 93.492 187.722 93.1107 188.572 92.348C189.438 91.5853 189.872 90.3373 189.872 88.604V78.256H187.766V76.8H193.902V78.256H191.536V88.786ZM205.906 93.544L217.814 78.256H208.948L208.428 78.828V82.078H206.556V76.8H221.142V78.256L209.234 93.544H218.906L219.426 92.972V89.722H221.298V95H205.906V93.544ZM241.991 95H234.347V93.544H236.713V78.256H234.347V76.8H241.991V78.256H239.625V93.544H241.991V95ZM255.496 85.9C255.496 84.548 255.704 83.3 256.12 82.156C256.536 80.9947 257.134 79.998 257.914 79.166C258.712 78.3167 259.682 77.658 260.826 77.19C261.988 76.722 263.305 76.488 264.778 76.488C266.252 76.488 267.569 76.722 268.73 77.19C269.892 77.658 270.871 78.3167 271.668 79.166C272.466 79.998 273.072 80.9947 273.488 82.156C273.904 83.3 274.112 84.548 274.112 85.9C274.112 87.252 273.904 88.5087 273.488 89.67C273.072 90.814 272.466 91.8107 271.668 92.66C270.871 93.492 269.892 94.142 268.73 94.61C267.569 95.078 266.252 95.312 264.778 95.312C263.305 95.312 261.988 95.078 260.826 94.61C259.682 94.142 258.712 93.492 257.914 92.66C257.134 91.8107 256.536 90.814 256.12 89.67C255.704 88.5087 255.496 87.252 255.496 85.9ZM258.746 85.9C258.746 87.0093 258.868 88.0493 259.11 89.02C259.37 89.9907 259.76 90.8313 260.28 91.542C260.8 92.2527 261.45 92.816 262.23 93.232C263.028 93.648 263.964 93.856 265.038 93.856C266.026 93.856 266.884 93.648 267.612 93.232C268.34 92.816 268.938 92.2527 269.406 91.542C269.892 90.8313 270.256 89.9907 270.498 89.02C270.741 88.0493 270.862 87.0093 270.862 85.9C270.862 84.7907 270.732 83.7507 270.472 82.78C270.23 81.8093 269.848 80.9687 269.328 80.258C268.808 79.5473 268.15 78.984 267.352 78.568C266.572 78.152 265.636 77.944 264.544 77.944C263.504 77.944 262.612 78.152 261.866 78.568C261.138 78.984 260.54 79.5473 260.072 80.258C259.604 80.9687 259.266 81.8093 259.058 82.78C258.85 83.7507 258.746 84.7907 258.746 85.9ZM300.348 76.8H306.744V78.256H304.378V95.312H302.688L292.106 81.038L290.962 79.036H290.858L291.118 81.064V93.544H293.484V95H287.088V93.544H289.454V78.256H287.088V76.8H292.288L301.388 89.046L302.74 91.282H302.87L302.714 89.046V78.256H300.348V76.8ZM327.241 95H319.597V93.544H321.963V78.256H319.597V76.8H327.241V78.256H324.875V93.544H327.241V95Z" fill="#1E1E1E"/>
</g>
<defs>
<filter id="filter0_i_17_18" x="2.304" y="9" width="352.113" height="90.312" filterUnits="userSpaceOnUse" color-interpolation-filters="sRGB">
<feFlood flood-opacity="0" result="BackgroundImageFix"/>
<feBlend mode="normal" in="SourceGraphic" in2="BackgroundImageFix" result="shape"/>
<feColorMatrix in="SourceAlpha" type="matrix" values="0 0 0 0 0 0 0 0 0 0 0 0 0 0 0 0 0 0 127 0" result="hardAlpha"/>
<feOffset dy="4"/>
<feGaussianBlur stdDeviation="10"/>
<feComposite in2="hardAlpha" operator="arithmetic" k2="-1" k3="1"/>
<feColorMatrix type="matrix" values="0 0 0 0 0.321569 0 0 0 0 0.145098 0 0 0 0 0.0156863 0 0 0 0.45 0"/>
<feBlend mode="normal" in2="shape" result="effect1_innerShadow_17_18"/>
</filter>
<filter id="filter1_i_17_18" x="260.313" y="12.024" width="94.1046" height="54.976" filterUnits="userSpaceOnUse" color-interpolation-filters="sRGB">
<feFlood flood-opacity="0" result="BackgroundImageFix"/>
<feBlend mode="normal" in="SourceGraphic" in2="BackgroundImageFix" result="shape"/>
<feColorMatrix in="SourceAlpha" type="matrix" values="0 0 0 0 0 0 0 0 0 0 0 0 0 0 0 0 0 0 127 0" result="hardAlpha"/>
<feOffset dy="4"/>
<feGaussianBlur stdDeviation="2"/>
<feComposite in2="hardAlpha" operator="arithmetic" k2="-1" k3="1"/>
<feColorMatrix type="matrix" values="0 0 0 0 0.321569 0 0 0 0 0.145098 0 0 0 0 0.0156863 0 0 0 0.45 0"/>
<feBlend mode="normal" in2="shape" result="effect1_innerShadow_17_18"/>
</filter>
</defs>
</svg>
