<svg width="389" height="132" viewBox="0 0 389 132" fill="none" xmlns="http://www.w3.org/2000/svg">
<g filter="url(#filter0_i_28_5)">
<path d="M276.738 78.624H284.994V84H257.25V78.624H265.986V22.176H257.25V16.8H266.946C269.826 16.8 272.962 16.672 276.354 16.416C279.746 16.16 283.074 16.032 286.338 16.032C289.858 16.032 293.154 16.416 296.226 17.184C299.362 17.888 302.05 19.008 304.29 20.544C306.53 22.08 308.29 24.064 309.57 26.496C310.914 28.864 311.586 31.712 311.586 35.04C311.586 39.648 310.146 43.584 307.266 46.848C304.45 50.048 300.738 52.32 296.13 53.664L315.234 78.624H321.186V84H305.634L286.53 55.008H276.738V78.624ZM284.322 50.016C289.25 50.016 293.09 48.672 295.842 45.984C298.658 43.296 300.066 39.648 300.066 35.04C300.066 30.304 298.594 26.848 295.65 24.672C292.706 22.496 288.802 21.408 283.938 21.408C282.274 21.408 280.866 21.472 279.714 21.6C278.626 21.728 277.634 21.856 276.738 21.984V50.016H284.322ZM381.091 16.8V32.544H374.947V24.288L373.027 22.176H349.507V47.04H365.731L367.171 45.6V41.568H373.315V57.984H367.171V53.952L365.731 52.416H349.507V78.624H374.659L376.579 76.704V67.296H382.723V84H330.019V78.624H338.755V22.176H330.019V16.8H381.091Z" fill="#DCAA20"/>
</g>
<path d="M2.304 37.632V33.6H18.72L35.712 65.856L53.064 33.6H68.544V37.632H61.992V79.968H68.544V84H47.664V79.968H54.216V47.856C54.264 47.616 54.288 47.064 54.288 46.2C54.336 45.288 54.384 44.328 54.432 43.32C54.48 42.12 54.528 40.824 54.576 39.432H53.928L50.832 47.136L36.072 73.2H31.68L17.28 47.136L14.112 38.712H13.392V43.176C13.392 44.28 13.392 45.336 13.392 46.344C13.44 47.304 13.464 47.808 13.464 47.856V79.968H19.584V84H2.304V79.968H8.856V37.632H2.304ZM92.331 84H74.115V80.4H79.443V49.8H74.115V46.2H87.003V80.4H92.331V84ZM77.859 34.536C77.859 33.144 78.339 32.04 79.299 31.224C80.307 30.408 81.579 30 83.115 30C84.747 30 86.019 30.408 86.931 31.224C87.891 32.04 88.371 33.144 88.371 34.536C88.371 35.928 87.891 37.032 86.931 37.848C86.019 38.664 84.747 39.072 83.115 39.072C81.579 39.072 80.307 38.664 79.299 37.848C78.339 37.032 77.859 35.928 77.859 34.536ZM116.729 84H98.5134V80.4H103.841V33.6H97.7214V30H111.401V80.4H116.729V84ZM153.08 73.992C153.08 75.096 153.104 76.224 153.152 77.376C153.2 78.48 153.272 79.488 153.368 80.4H158.12V84H146.816L146.096 77.16H145.736C145.496 78.12 145.04 79.056 144.368 79.968C143.744 80.88 142.928 81.696 141.92 82.416C140.96 83.136 139.808 83.712 138.464 84.144C137.12 84.576 135.632 84.792 134 84.792C132.368 84.792 130.856 84.552 129.464 84.072C128.12 83.592 126.944 82.92 125.936 82.056C124.928 81.192 124.136 80.16 123.56 78.96C123.032 77.712 122.768 76.32 122.768 74.784C122.768 72.432 123.248 70.488 124.208 68.952C125.216 67.416 126.68 66.216 128.6 65.352C130.52 64.44 132.92 63.792 135.8 63.408C138.68 63.024 142.04 62.808 145.88 62.76C145.976 61.992 146.024 61.272 146.024 60.6C146.024 59.88 146.024 59.184 146.024 58.512C146.024 55.536 145.52 53.28 144.512 51.744C143.504 50.16 141.704 49.368 139.112 49.368C138.152 49.368 137.12 49.416 136.016 49.512C134.912 49.608 133.904 49.896 132.992 50.376V57H126.512V49.008C128.24 48.096 130.28 47.28 132.632 46.56C134.984 45.84 137.744 45.48 140.912 45.48C143.648 45.48 145.832 45.84 147.464 46.56C149.144 47.232 150.416 48.144 151.28 49.296C152.192 50.4 152.768 51.672 153.008 53.112C153.296 54.504 153.44 55.896 153.44 57.288C153.44 60.312 153.368 63.216 153.224 66C153.128 68.736 153.08 71.4 153.08 73.992ZM137.312 79.968C138.464 79.968 139.496 79.8 140.408 79.464C141.32 79.08 142.112 78.624 142.784 78.096C143.504 77.52 144.104 76.896 144.584 76.224C145.112 75.552 145.544 74.904 145.88 74.28V65.712C142.76 65.712 140.216 65.928 138.248 66.36C136.328 66.744 134.816 67.272 133.712 67.944C132.608 68.616 131.84 69.432 131.408 70.392C131.024 71.304 130.832 72.288 130.832 73.344C130.832 75.504 131.408 77.16 132.56 78.312C133.712 79.416 135.296 79.968 137.312 79.968ZM207.536 84H189.896V80.4H194.648V62.328C194.648 58.536 194.072 55.584 192.92 53.472C191.768 51.36 189.656 50.304 186.584 50.304C185.24 50.304 183.992 50.52 182.84 50.952C181.736 51.384 180.728 51.96 179.816 52.68C178.952 53.4 178.184 54.24 177.512 55.2C176.888 56.16 176.408 57.168 176.072 58.224V80.4H180.824V84H163.184V80.4H168.512V49.8H163.184V46.2H176.072V53.688H176.144C177.248 51.384 178.856 49.44 180.968 47.856C183.128 46.272 185.72 45.48 188.744 45.48C190.904 45.48 192.824 45.72 194.504 46.2C196.184 46.632 197.576 47.448 198.68 48.648C199.832 49.848 200.696 51.456 201.272 53.472C201.896 55.488 202.208 58.056 202.208 61.176V80.4H207.536V84ZM212.138 65.136C212.138 61.968 212.594 59.16 213.506 56.712C214.418 54.264 215.69 52.224 217.322 50.592C219.002 48.912 221.018 47.64 223.37 46.776C225.77 45.912 228.41 45.48 231.29 45.48C234.65 45.48 237.53 45.96 239.93 46.92C242.378 47.832 244.37 49.152 245.906 50.88C247.442 52.56 248.57 54.624 249.29 57.072C250.058 59.472 250.442 62.16 250.442 65.136C250.442 68.304 249.986 71.112 249.074 73.56C248.21 75.96 246.938 78 245.258 79.68C243.626 81.312 241.61 82.56 239.21 83.424C236.858 84.288 234.218 84.72 231.29 84.72C228.026 84.72 225.194 84.264 222.794 83.352C220.394 82.392 218.402 81.072 216.818 79.392C215.234 77.664 214.058 75.6 213.29 73.2C212.522 70.8 212.138 68.112 212.138 65.136ZM220.274 65.136C220.274 67.44 220.49 69.576 220.922 71.544C221.354 73.512 222.05 75.216 223.01 76.656C224.018 78.096 225.29 79.248 226.826 80.112C228.41 80.928 230.33 81.336 232.586 81.336C235.418 81.336 237.746 80.04 239.57 77.448C241.394 74.856 242.306 70.752 242.306 65.136C242.306 62.832 242.09 60.696 241.658 58.728C241.226 56.712 240.53 54.984 239.57 53.544C238.658 52.056 237.458 50.904 235.97 50.088C234.53 49.272 232.754 48.864 230.642 48.864C227.474 48.864 224.954 50.16 223.082 52.752C221.21 55.344 220.274 59.472 220.274 65.136Z" fill="#251D07"/>
<path d="M44.794 111.216H46.458V115.298C45.9207 115.593 45.21 115.835 44.326 116.026C43.442 116.217 42.5667 116.312 41.7 116.312C40.1053 116.312 38.6753 116.13 37.41 115.766C36.1447 115.402 35.07 114.839 34.186 114.076C33.3193 113.296 32.652 112.317 32.184 111.138C31.716 109.959 31.482 108.547 31.482 106.9C31.482 105.201 31.742 103.763 32.262 102.584C32.782 101.388 33.484 100.417 34.368 99.672C35.252 98.9093 36.2747 98.3547 37.436 98.008C38.5973 97.6613 39.8193 97.488 41.102 97.488C41.726 97.488 42.2893 97.514 42.792 97.566C43.2947 97.6007 43.7453 97.6613 44.144 97.748C44.56 97.8347 44.9413 97.9387 45.288 98.06C45.6347 98.1813 45.9727 98.3113 46.302 98.45V102.896H44.638V100.166L44.274 99.646C44.0833 99.5593 43.78 99.4553 43.364 99.334C42.9653 99.2127 42.3153 99.152 41.414 99.152C40.478 99.152 39.6027 99.2993 38.788 99.594C37.9733 99.8887 37.2627 100.348 36.656 100.972C36.0667 101.596 35.5987 102.402 35.252 103.39C34.9053 104.361 34.732 105.531 34.732 106.9C34.732 109.379 35.356 111.294 36.604 112.646C37.8693 113.981 39.6373 114.648 41.908 114.648C42.532 114.648 43.052 114.605 43.468 114.518C43.9013 114.414 44.222 114.284 44.43 114.128L44.794 113.634V111.216ZM59.6107 106.9C59.6107 105.548 59.8187 104.3 60.2347 103.156C60.6507 101.995 61.2487 100.998 62.0288 100.166C62.8261 99.3167 63.7968 98.658 64.9408 98.19C66.1021 97.722 67.4194 97.488 68.8928 97.488C70.3661 97.488 71.6834 97.722 72.8448 98.19C74.0061 98.658 74.9854 99.3167 75.7828 100.166C76.5801 100.998 77.1868 101.995 77.6028 103.156C78.0188 104.3 78.2268 105.548 78.2268 106.9C78.2268 108.252 78.0188 109.509 77.6028 110.67C77.1868 111.814 76.5801 112.811 75.7828 113.66C74.9854 114.492 74.0061 115.142 72.8448 115.61C71.6834 116.078 70.3661 116.312 68.8928 116.312C67.4194 116.312 66.1021 116.078 64.9408 115.61C63.7968 115.142 62.8261 114.492 62.0288 113.66C61.2487 112.811 60.6507 111.814 60.2347 110.67C59.8187 109.509 59.6107 108.252 59.6107 106.9ZM62.8608 106.9C62.8608 108.009 62.9821 109.049 63.2248 110.02C63.4848 110.991 63.8748 111.831 64.3948 112.542C64.9148 113.253 65.5648 113.816 66.3448 114.232C67.1421 114.648 68.0781 114.856 69.1528 114.856C70.1408 114.856 70.9988 114.648 71.7267 114.232C72.4547 113.816 73.0527 113.253 73.5208 112.542C74.0061 111.831 74.3701 110.991 74.6127 110.02C74.8554 109.049 74.9767 108.009 74.9767 106.9C74.9767 105.791 74.8468 104.751 74.5868 103.78C74.3441 102.809 73.9628 101.969 73.4428 101.258C72.9228 100.547 72.2641 99.984 71.4668 99.568C70.6868 99.152 69.7508 98.944 68.6588 98.944C67.6188 98.944 66.7261 99.152 65.9808 99.568C65.2528 99.984 64.6548 100.547 64.1868 101.258C63.7188 101.969 63.3808 102.809 63.1727 103.78C62.9648 104.751 62.8608 105.791 62.8608 106.9ZM93.6468 113.452L94.1148 114.076C94.4268 114.301 94.8514 114.492 95.3888 114.648C95.9434 114.787 96.5501 114.856 97.2088 114.856C97.8328 114.856 98.4048 114.795 98.9248 114.674C99.4621 114.535 99.9301 114.336 100.329 114.076C100.727 113.816 101.039 113.487 101.265 113.088C101.49 112.689 101.603 112.213 101.603 111.658C101.603 110.947 101.36 110.358 100.875 109.89C100.407 109.422 99.8174 109.006 99.1068 108.642C98.3961 108.278 97.6248 107.923 96.7928 107.576C95.9608 107.229 95.1894 106.822 94.4788 106.354C93.7681 105.886 93.1701 105.323 92.6848 104.664C92.2168 104.005 91.9828 103.173 91.9828 102.168C91.9828 100.695 92.5374 99.5507 93.6468 98.736C94.7734 97.904 96.2901 97.488 98.1968 97.488C99.3928 97.488 100.424 97.566 101.291 97.722C102.157 97.878 102.894 98.086 103.501 98.346V102.818H101.837V100.01L101.421 99.36C101.091 99.2213 100.615 99.1173 99.9908 99.048C99.3668 98.9787 98.7514 98.944 98.1448 98.944C97.1048 98.944 96.2901 99.1867 95.7008 99.672C95.1114 100.14 94.8168 100.807 94.8168 101.674C94.8168 102.385 95.0508 102.983 95.5188 103.468C96.0041 103.936 96.6021 104.361 97.3128 104.742C98.0234 105.123 98.7948 105.496 99.6268 105.86C100.459 106.207 101.23 106.614 101.941 107.082C102.651 107.533 103.241 108.079 103.709 108.72C104.194 109.361 104.437 110.159 104.437 111.112C104.437 112.793 103.787 114.085 102.487 114.986C101.187 115.87 99.4101 116.312 97.1568 116.312C95.9261 116.312 94.8601 116.182 93.9588 115.922C93.0574 115.662 92.3988 115.385 91.9828 115.09V110.358H93.6468V113.452ZM129.727 116H121.459V114.544H124.137V99.256H119.483L118.963 99.828V103.182H117.091V97.8H134.095V103.182H132.223V99.828L131.703 99.256H127.049V114.544H129.727V116ZM151.443 114.544H153.679V116H146.165V114.544H148.531V99.256H146.165V97.8H148.791C149.571 97.8 150.421 97.7653 151.339 97.696C152.258 97.6267 153.159 97.592 154.043 97.592C154.997 97.592 155.889 97.696 156.721 97.904C157.571 98.0947 158.299 98.398 158.905 98.814C159.512 99.23 159.989 99.7673 160.335 100.426C160.699 101.067 160.881 101.839 160.881 102.74C160.881 103.988 160.491 105.054 159.711 105.938C158.949 106.805 157.943 107.42 156.695 107.784L161.869 114.544H163.481V116H159.269L154.095 108.148H151.443V114.544ZM153.497 106.796C154.832 106.796 155.872 106.432 156.617 105.704C157.38 104.976 157.761 103.988 157.761 102.74C157.761 101.457 157.363 100.521 156.565 99.932C155.768 99.3427 154.711 99.048 153.393 99.048C152.943 99.048 152.561 99.0653 152.249 99.1C151.955 99.1347 151.686 99.1693 151.443 99.204V106.796H153.497ZM191.536 109.786C191.536 110.895 191.371 111.857 191.042 112.672C190.712 113.469 190.244 114.137 189.638 114.674C189.048 115.194 188.329 115.584 187.48 115.844C186.63 116.104 185.686 116.234 184.646 116.234C182.184 116.234 180.304 115.749 179.004 114.778C177.721 113.79 177.08 112.273 177.08 110.228V99.256H174.714V97.8H182.098V99.256H179.992V109.682C179.992 110.583 180.104 111.346 180.33 111.97C180.555 112.577 180.876 113.071 181.292 113.452C181.725 113.816 182.254 114.085 182.878 114.258C183.502 114.414 184.212 114.492 185.01 114.492C186.535 114.492 187.722 114.111 188.572 113.348C189.438 112.585 189.872 111.337 189.872 109.604V99.256H187.766V97.8H193.902V99.256H191.536V109.786ZM205.906 114.544L217.814 99.256H208.948L208.428 99.828V103.078H206.556V97.8H221.142V99.256L209.234 114.544H218.906L219.426 113.972V110.722H221.298V116H205.906V114.544ZM241.991 116H234.347V114.544H236.713V99.256H234.347V97.8H241.991V99.256H239.625V114.544H241.991V116ZM255.496 106.9C255.496 105.548 255.704 104.3 256.12 103.156C256.536 101.995 257.134 100.998 257.914 100.166C258.712 99.3167 259.682 98.658 260.826 98.19C261.988 97.722 263.305 97.488 264.778 97.488C266.252 97.488 267.569 97.722 268.73 98.19C269.892 98.658 270.871 99.3167 271.668 100.166C272.466 100.998 273.072 101.995 273.488 103.156C273.904 104.3 274.112 105.548 274.112 106.9C274.112 108.252 273.904 109.509 273.488 110.67C273.072 111.814 272.466 112.811 271.668 113.66C270.871 114.492 269.892 115.142 268.73 115.61C267.569 116.078 266.252 116.312 264.778 116.312C263.305 116.312 261.988 116.078 260.826 115.61C259.682 115.142 258.712 114.492 257.914 113.66C257.134 112.811 256.536 111.814 256.12 110.67C255.704 109.509 255.496 108.252 255.496 106.9ZM258.746 106.9C258.746 108.009 258.868 109.049 259.11 110.02C259.37 110.991 259.76 111.831 260.28 112.542C260.8 113.253 261.45 113.816 262.23 114.232C263.028 114.648 263.964 114.856 265.038 114.856C266.026 114.856 266.884 114.648 267.612 114.232C268.34 113.816 268.938 113.253 269.406 112.542C269.892 111.831 270.256 110.991 270.498 110.02C270.741 109.049 270.862 108.009 270.862 106.9C270.862 105.791 270.732 104.751 270.472 103.78C270.23 102.809 269.848 101.969 269.328 101.258C268.808 100.547 268.15 99.984 267.352 99.568C266.572 99.152 265.636 98.944 264.544 98.944C263.504 98.944 262.612 99.152 261.866 99.568C261.138 99.984 260.54 100.547 260.072 101.258C259.604 101.969 259.266 102.809 259.058 103.78C258.85 104.751 258.746 105.791 258.746 106.9ZM300.348 97.8H306.744V99.256H304.378V116.312H302.688L292.106 102.038L290.962 100.036H290.858L291.118 102.064V114.544H293.484V116H287.088V114.544H289.454V99.256H287.088V97.8H292.288L301.388 110.046L302.74 112.282H302.87L302.714 110.046V99.256H300.348V97.8ZM327.241 116H319.597V114.544H321.963V99.256H319.597V97.8H327.241V99.256H324.875V114.544H327.241V116Z" fill="#251D07"/>
<defs>
<filter id="filter0_i_28_5" x="257.25" y="16.032" width="129.473" height="71.968" filterUnits="userSpaceOnUse" color-interpolation-filters="sRGB">
<feFlood flood-opacity="0" result="BackgroundImageFix"/>
<feBlend mode="normal" in="SourceGraphic" in2="BackgroundImageFix" result="shape"/>
<feColorMatrix in="SourceAlpha" type="matrix" values="0 0 0 0 0 0 0 0 0 0 0 0 0 0 0 0 0 0 127 0" result="hardAlpha"/>
<feOffset dx="4" dy="4"/>
<feGaussianBlur stdDeviation="2"/>
<feComposite in2="hardAlpha" operator="arithmetic" k2="-1" k3="1"/>
<feColorMatrix type="matrix" values="0 0 0 0 0.588235 0 0 0 0 0.380392 0 0 0 0 0.117647 0 0 0 0.35 0"/>
<feBlend mode="normal" in2="shape" result="effect1_innerShadow_28_5"/>
</filter>
</defs>
</svg>
