<svg width="80" height="64" viewBox="0 0 80 64" fill="none" xmlns="http://www.w3.org/2000/svg">
<path d="M77.38 36.32H78.66V39.46C78.2467 39.6867 77.7 39.8733 77.02 40.02C76.34 40.1667 75.6667 40.24 75 40.24C73.7733 40.24 72.6733 40.1 71.7 39.82C70.7267 39.54 69.9 39.1067 69.22 38.52C68.5533 37.92 68.04 37.1667 67.68 36.26C67.32 35.3533 67.14 34.2667 67.14 33C67.14 31.6933 67.34 30.5867 67.74 29.68C68.14 28.76 68.68 28.0133 69.36 27.44C70.04 26.8533 70.8267 26.4267 71.72 26.16C72.6133 25.8933 73.5533 25.76 74.54 25.76C75.02 25.76 75.4533 25.78 75.84 25.82C76.2267 25.8467 76.5733 25.8933 76.88 25.96C77.2 26.0267 77.4933 26.1067 77.76 26.2C78.0267 26.2933 78.2867 26.3933 78.54 26.5V29.92H77.26V27.82L76.98 27.42C76.8333 27.3533 76.6 27.2733 76.28 27.18C75.9733 27.0867 75.4733 27.04 74.78 27.04C74.06 27.04 73.3867 27.1533 72.76 27.38C72.1333 27.6067 71.5867 27.96 71.12 28.44C70.6667 28.92 70.3067 29.54 70.04 30.3C69.7733 31.0467 69.64 31.9467 69.64 33C69.64 34.9067 70.12 36.38 71.08 37.42C72.0533 38.4467 73.4133 38.96 75.16 38.96C75.64 38.96 76.04 38.9267 76.36 38.86C76.6933 38.78 76.94 38.68 77.1 38.56L77.38 38.18V36.32Z" fill="white"/>
<g filter="url(#filter0_i_50_2)">
<path d="M35.3838 52.416H40.8878V56H22.3918V52.416H28.2158V14.784H22.3918V11.2H28.8558C30.7758 11.2 32.8664 11.1147 35.1278 10.944C37.3891 10.7733 39.6078 10.688 41.7838 10.688C44.1304 10.688 46.3278 10.944 48.3758 11.456C50.4664 11.9253 52.2584 12.672 53.7518 13.696C55.2451 14.72 56.4184 16.0427 57.2718 17.664C58.1678 19.2427 58.6158 21.1413 58.6158 23.36C58.6158 26.432 57.6558 29.056 55.7358 31.232C53.8584 33.3653 51.3838 34.88 48.3118 35.776L61.0478 52.416H65.0158V56H54.6478L41.9118 36.672H35.3838V52.416ZM40.4398 33.344C43.7251 33.344 46.2851 32.448 48.1198 30.656C49.9971 28.864 50.9358 26.432 50.9358 23.36C50.9358 20.2027 49.9544 17.8987 47.9918 16.448C46.0291 14.9973 43.4264 14.272 40.1838 14.272C39.0744 14.272 38.1358 14.3147 37.3678 14.4C36.6424 14.4853 35.9811 14.5707 35.3838 14.656V33.344H40.4398Z" fill="#DCAA20"/>
</g>
<path d="M0.64 27.12V26H5.2L9.92 34.96L14.74 26H19.04V27.12H17.22V38.88H19.04V40H13.24V38.88H15.06V29.96C15.0733 29.8933 15.08 29.74 15.08 29.5C15.0933 29.2467 15.1067 28.98 15.12 28.7C15.1333 28.3667 15.1467 28.0067 15.16 27.62H14.98L14.12 29.76L10.02 37H8.8L4.8 29.76L3.92 27.42H3.72V28.66C3.72 28.9667 3.72 29.26 3.72 29.54C3.73333 29.8067 3.74 29.9467 3.74 29.96V38.88H5.44V40H0.64V38.88H2.46V27.12H0.64Z" fill="white"/>
<defs>
<filter id="filter0_i_50_2" x="22.3918" y="10.688" width="46.624" height="49.312" filterUnits="userSpaceOnUse" color-interpolation-filters="sRGB">
<feFlood flood-opacity="0" result="BackgroundImageFix"/>
<feBlend mode="normal" in="SourceGraphic" in2="BackgroundImageFix" result="shape"/>
<feColorMatrix in="SourceAlpha" type="matrix" values="0 0 0 0 0 0 0 0 0 0 0 0 0 0 0 0 0 0 127 0" result="hardAlpha"/>
<feOffset dx="4" dy="4"/>
<feGaussianBlur stdDeviation="2"/>
<feComposite in2="hardAlpha" operator="arithmetic" k2="-1" k3="1"/>
<feColorMatrix type="matrix" values="0 0 0 0 0.588235 0 0 0 0 0.380392 0 0 0 0 0.117647 0 0 0 0.35 0"/>
<feBlend mode="normal" in2="shape" result="effect1_innerShadow_50_2"/>
</filter>
</defs>
</svg>
